<?xml version="1.0" encoding="UTF-8"?>
<svg id="_レイヤー_1" data-name="レイヤー 1" xmlns="http://www.w3.org/2000/svg" viewBox="0 0 83 86">
  <defs>
    <style>
      .cls-1, .cls-2 {
        fill: #fff;
      }

      .cls-3 {
        fill: none;
      }

      .cls-3, .cls-2 {
        stroke: #fff;
        stroke-linejoin: round;
        stroke-width: 2.2px;
      }
    </style>
  </defs>
  <g>
    <path class="cls-1" d="m12.78,22.43h3.31l2.22-10.52h-2.71l.32-1.5c1.47-.27,2.55-.62,3.53-1.15h1.79l-2.78,13.17h2.96l-.41,1.95h-8.63l.41-1.95Z"/>
    <path class="cls-1" d="m25.25,13.08h2.38l.21,6.12c0,1.09-.04,2.14-.06,3.21h.08c.47-1.07.92-2.14,1.42-3.21l2.87-6.12h2.2l.33,6.12c.04,1.09.04,2.14.08,3.21h.08c.45-1.07.86-2.12,1.33-3.21l2.75-6.12h2.22l-5.3,11.3h-2.84l-.26-5.59c-.04-1.07-.03-2.1-.03-3.27h-.1c-.47,1.17-.9,2.22-1.41,3.29l-2.55,5.57h-2.73l-.67-11.3Z"/>
    <path class="cls-1" d="m41.38,18.75c.78-3.68,3.76-5.96,6.41-5.96,3,0,4.15,2.16,3.47,5.36-.1.45-.24.93-.35,1.19h-7.33c-.27,2.16.81,3.45,2.76,3.45,1.01,0,1.93-.31,2.87-.84l.51,1.5c-1.2.7-2.59,1.19-4.07,1.19-3.06,0-5.04-2.18-4.26-5.9Zm7.94-1.03c.41-1.95-.23-3.08-1.88-3.08-1.42,0-2.9,1.09-3.55,3.08h5.42Z"/>
    <path class="cls-1" d="m52.98,18.75c.78-3.68,3.76-5.96,6.41-5.96,3,0,4.15,2.16,3.47,5.36-.1.45-.24.93-.35,1.19h-7.33c-.27,2.16.81,3.45,2.76,3.45,1.01,0,1.93-.31,2.87-.84l.51,1.5c-1.2.7-2.59,1.19-4.07,1.19-3.06,0-5.05-2.18-4.26-5.9Zm7.94-1.03c.41-1.95-.23-3.08-1.88-3.08-1.42,0-2.9,1.09-3.55,3.08h5.42Z"/>
    <path class="cls-1" d="m67.66,8.01h2.3l-2.23,10.56h.06l5.6-5.49h2.61l-4.81,4.58,2.85,6.72h-2.57l-1.98-5.12-2.37,2.2-.62,2.92h-2.3l3.46-16.38Z"/>
  </g>
  <g>
    <polygon class="cls-3" points="49.72 79.54 65.33 79.54 65.33 52.41 69.35 53.48 75.38 40.27 59.53 33.02 50.82 33.02 42.1 33.02 26.26 40.27 32.29 53.48 36.31 52.41 36.31 79.54 51.92 79.54 49.72 79.54"/>
    <path class="cls-3" d="m59.53,33.02c-.59,3.67-5.14,6.03-8.72,6.03-3.58,0-8.12-2.36-8.72-6.03"/>
    <rect class="cls-3" x="8.64" y="60.19" width="17.62" height="19.34"/>
    <line class="cls-3" x1="26.26" y1="74.69" x2="36.05" y2="74.69"/>
  </g>
  <path class="cls-2" d="m37.21,35.26c2.04,4.76,1.65,12.46-.9,17.64"/>
  <path class="cls-2" d="m64.42,35.26c-2.04,4.76-1.65,12.46.9,17.64"/>
</svg>