<?xml version="1.0" encoding="UTF-8"?>
<svg id="Layer_2" data-name="Layer 2" xmlns="http://www.w3.org/2000/svg" viewBox="0 0 83 86">
  <defs>
    <style>
      .cls-1 {
        fill: #fff;
      }

      .cls-2 {
        fill: none;
        stroke: #fff;
        stroke-linejoin: round;
        stroke-width: 2.2px;
      }
    </style>
  </defs>
  <g>
    <path class="cls-1" d="m20.92,22.2h3.31l2.22-10.52h-2.71l.32-1.5c1.47-.27,2.55-.62,3.53-1.15h1.79l-2.78,13.17h2.96l-.41,1.95h-8.63l.41-1.95Z"/>
    <path class="cls-1" d="m32.67,18.52c.78-3.68,3.58-5.96,6.11-5.96,1.29,0,2.01.49,2.77,1.27l.29-1.87.88-4.19h2.36l-3.46,16.38h-1.93l.06-1.27h-.06c-1.03.86-2.34,1.54-3.61,1.54-2.84,0-4.21-2.16-3.42-5.9Zm7.24,2.57l1.17-5.53c-.68-.76-1.43-1.03-2.27-1.03-1.58,0-3.17,1.5-3.69,3.95-.54,2.57.17,3.99,1.93,3.99.95,0,1.84-.43,2.86-1.38Z"/>
    <path class="cls-1" d="m45.17,21.15c.51-2.43,2.83-3.68,7.64-4.19.26-1.32.03-2.47-1.64-2.47-1.19,0-2.41.53-3.51,1.15l-.55-1.6c1.33-.74,3.07-1.48,4.87-1.48,2.81,0,3.73,1.79,3.1,4.79l-1.44,6.8h-1.93l.07-1.3h-.06c-1.21.88-2.57,1.56-3.92,1.56-1.95,0-3.06-1.27-2.64-3.27Zm6.74.08l.59-2.77c-3.43.41-4.74,1.25-5.01,2.53-.23,1.11.43,1.56,1.44,1.56s1.89-.47,2.99-1.32Z"/>
    <path class="cls-1" d="m61.83,24.83c-1.4,2.43-2.93,4.05-5.31,4.05-.58,0-1.01-.08-1.37-.23l.84-1.85c.19.06.5.16.79.16,1.23,0,2.14-.9,2.81-2.12l.39-.78-2.11-11.22h2.42l.87,5.82c.12,1.01.23,2.14.35,3.19h.1l1.56-3.19,3.04-5.82h2.3l-6.68,11.98Z"/>
  </g>
  <g>
    <polygon class="cls-2" points="49.87 79.3 65.48 79.3 65.48 52.18 69.5 53.24 75.53 40.03 59.69 32.79 50.97 32.79 42.25 32.79 26.41 40.03 32.44 53.24 36.46 52.18 36.46 79.3 52.07 79.3 49.87 79.3"/>
    <path class="cls-2" d="m59.69,32.79c-.59,3.67-5.14,6.03-8.72,6.03-3.58,0-8.12-2.36-8.72-6.03"/>
    <rect class="cls-2" x="8.8" y="59.96" width="17.62" height="19.34"/>
    <line class="cls-2" x1="26.41" y1="74.45" x2="36.2" y2="74.45"/>
  </g>
  <path class="cls-2" d="m37.37,35.02c2.04,4.76,1.65,12.46-.9,17.64"/>
  <path class="cls-2" d="m64.57,35.02c-2.04,4.76-1.65,12.46.9,17.64"/>
</svg>