<?xml version="1.0" encoding="UTF-8"?>
<svg id="Layer_1" data-name="Layer 1" xmlns="http://www.w3.org/2000/svg" viewBox="0 0 487.15 331.91">
  <defs>
    <style>
      .cls-1 {
        fill: #00baff;
      }
    </style>
  </defs>
  <path class="cls-1" d="m486.29,72.71c-.08-1.89-.23-3.77-.43-5.65C479.04,28.95,445.7,0,405.57,0H83.54c-6.27.42-12.04.9-17.2,1.44C33.51,7.64,7.64,33.47,1.44,66.25c-.69,9.72-1.15,20.61-1.44,31.54v152.67c0,44.99,36.52,81.45,81.58,81.45h297.76c15.49-.31,29.95-.79,41.8-1.5,31.18-6.02,56.02-29.75,63.6-60.3.08-.67.16-1.33.23-2,.98-9.82,1.68-20.78,2.18-31.59V99.31c-.24-9.16-.52-18.22-.86-26.6Zm-174.3,105.36l-109.61,57.6c-5.08,2.67-11.17-1.01-11.17-6.75v-115.19c0-5.73,6.09-9.42,11.17-6.75l109.61,57.6c5.44,2.86,5.44,10.64,0,13.5Z"/>
</svg>